<mxfile host="app.diagrams.net" modified="2020-09-22T19:19:17.408Z" agent="5.0 (Windows NT 10.0; Win64; x64) AppleWebKit/537.36 (KHTML, like Gecko) Chrome/85.0.4183.102 Safari/537.36" etag="V_SuD3mfGVT1Q4gwysbH" version="13.7.4" type="github">
  <diagram id="C5RBs43oDa-KdzZeNtuy" name="Page-1">
    <mxGraphModel dx="1038" dy="585" grid="1" gridSize="10" guides="1" tooltips="1" connect="1" arrows="1" fold="1" page="1" pageScale="1" pageWidth="850" pageHeight="1100" math="0" shadow="0">
      <root>
        <mxCell id="WIyWlLk6GJQsqaUBKTNV-0" />
        <mxCell id="WIyWlLk6GJQsqaUBKTNV-1" parent="WIyWlLk6GJQsqaUBKTNV-0" />
        <mxCell id="iRkvDIAzvXE8H16qDf4w-6" value="" style="edgeStyle=orthogonalEdgeStyle;rounded=0;orthogonalLoop=1;jettySize=auto;html=1;" edge="1" parent="WIyWlLk6GJQsqaUBKTNV-1" source="iRkvDIAzvXE8H16qDf4w-1" target="iRkvDIAzvXE8H16qDf4w-4">
          <mxGeometry relative="1" as="geometry" />
        </mxCell>
        <mxCell id="iRkvDIAzvXE8H16qDf4w-1" value="Start" style="strokeWidth=2;html=1;shape=mxgraph.flowchart.start_1;whiteSpace=wrap;" vertex="1" parent="WIyWlLk6GJQsqaUBKTNV-1">
          <mxGeometry x="170" y="60" width="100" height="60" as="geometry" />
        </mxCell>
        <mxCell id="iRkvDIAzvXE8H16qDf4w-8" value="" style="edgeStyle=orthogonalEdgeStyle;rounded=0;orthogonalLoop=1;jettySize=auto;html=1;" edge="1" parent="WIyWlLk6GJQsqaUBKTNV-1" source="iRkvDIAzvXE8H16qDf4w-4" target="iRkvDIAzvXE8H16qDf4w-7">
          <mxGeometry relative="1" as="geometry" />
        </mxCell>
        <mxCell id="iRkvDIAzvXE8H16qDf4w-4" value="Prompt for dollars and cents" style="shape=parallelogram;perimeter=parallelogramPerimeter;whiteSpace=wrap;html=1;fixedSize=1;size=10;" vertex="1" parent="WIyWlLk6GJQsqaUBKTNV-1">
          <mxGeometry x="160" y="160" width="120" height="60" as="geometry" />
        </mxCell>
        <mxCell id="iRkvDIAzvXE8H16qDf4w-10" value="" style="edgeStyle=orthogonalEdgeStyle;rounded=0;orthogonalLoop=1;jettySize=auto;html=1;" edge="1" parent="WIyWlLk6GJQsqaUBKTNV-1" source="iRkvDIAzvXE8H16qDf4w-7" target="iRkvDIAzvXE8H16qDf4w-9">
          <mxGeometry relative="1" as="geometry" />
        </mxCell>
        <mxCell id="iRkvDIAzvXE8H16qDf4w-7" value="Convert all input to cents" style="whiteSpace=wrap;html=1;" vertex="1" parent="WIyWlLk6GJQsqaUBKTNV-1">
          <mxGeometry x="160" y="260" width="120" height="60" as="geometry" />
        </mxCell>
        <mxCell id="iRkvDIAzvXE8H16qDf4w-12" value="True" style="edgeStyle=orthogonalEdgeStyle;rounded=0;orthogonalLoop=1;jettySize=auto;html=1;" edge="1" parent="WIyWlLk6GJQsqaUBKTNV-1" source="iRkvDIAzvXE8H16qDf4w-9" target="iRkvDIAzvXE8H16qDf4w-11">
          <mxGeometry relative="1" as="geometry" />
        </mxCell>
        <mxCell id="iRkvDIAzvXE8H16qDf4w-14" value="False" style="edgeStyle=orthogonalEdgeStyle;rounded=0;orthogonalLoop=1;jettySize=auto;html=1;" edge="1" parent="WIyWlLk6GJQsqaUBKTNV-1" source="iRkvDIAzvXE8H16qDf4w-9">
          <mxGeometry relative="1" as="geometry">
            <mxPoint x="372.5" y="408" as="targetPoint" />
          </mxGeometry>
        </mxCell>
        <mxCell id="iRkvDIAzvXE8H16qDf4w-9" value="&lt;p style=&quot;line-height: 120%&quot;&gt;Enough money for regular coffee?&lt;/p&gt;" style="rhombus;whiteSpace=wrap;html=1;spacingLeft=4;spacingRight=4;" vertex="1" parent="WIyWlLk6GJQsqaUBKTNV-1">
          <mxGeometry x="153.75" y="368" width="132.5" height="80" as="geometry" />
        </mxCell>
        <mxCell id="iRkvDIAzvXE8H16qDf4w-11" value="Subtract cost from total" style="whiteSpace=wrap;html=1;" vertex="1" parent="WIyWlLk6GJQsqaUBKTNV-1">
          <mxGeometry x="160" y="490" width="120" height="60" as="geometry" />
        </mxCell>
        <mxCell id="iRkvDIAzvXE8H16qDf4w-18" value="True" style="edgeStyle=orthogonalEdgeStyle;rounded=0;orthogonalLoop=1;jettySize=auto;html=1;" edge="1" parent="WIyWlLk6GJQsqaUBKTNV-1" source="iRkvDIAzvXE8H16qDf4w-15" target="iRkvDIAzvXE8H16qDf4w-17">
          <mxGeometry relative="1" as="geometry" />
        </mxCell>
        <mxCell id="iRkvDIAzvXE8H16qDf4w-15" value="Enough money forÂ small coffee?" style="rhombus;whiteSpace=wrap;html=1;spacingTop=0;spacingLeft=3;" vertex="1" parent="WIyWlLk6GJQsqaUBKTNV-1">
          <mxGeometry x="370" y="368" width="132.5" height="80" as="geometry" />
        </mxCell>
        <mxCell id="iRkvDIAzvXE8H16qDf4w-17" value="" style="whiteSpace=wrap;html=1;spacingTop=0;spacingLeft=3;" vertex="1" parent="WIyWlLk6GJQsqaUBKTNV-1">
          <mxGeometry x="376.25" y="490" width="120" height="60" as="geometry" />
        </mxCell>
      </root>
    </mxGraphModel>
  </diagram>
</mxfile>
